<svg xmlns="http://www.w3.org/2000/svg" width="38.384" height="74.598" viewBox="0 0 38.384 74.598">
  <g id="noun_arrows_3219675" transform="translate(-13.387 98.354) rotate(-90)">
    <g id="Layer_25" data-name="Layer 25" transform="translate(23.756 13.387)">
      <path id="Path_189" data-name="Path 189" d="M76.185,30.791H9.467L23.819,16.439a1.788,1.788,0,1,0-2.528-2.528l-17.4,17.4a1.768,1.768,0,0,0-.353.531,1.716,1.716,0,0,0-.062.175,1.762,1.762,0,0,0,.014,1.189c.006.016.006.032.012.047l0,.006a1.758,1.758,0,0,0,.352.526c.015.016.02.038.036.054l17.4,17.4a1.788,1.788,0,1,0,2.528-2.528L9.467,34.367H76.185a1.788,1.788,0,1,0,0-3.576Z" transform="translate(-3.375 -13.387)" fill="#fff"/>
    </g>
  </g>
</svg>
